<mxfile host="app.diagrams.net" agent="Mozilla/5.0 (Windows NT 10.0; Win64; x64) AppleWebKit/537.36 (KHTML, like Gecko) Chrome/131.0.0.0 Safari/537.36" version="24.7.17">
  <diagram name="Seite-1" id="EggkwKtYo7DrW578ICJH">
    <mxGraphModel dx="493" dy="439" grid="1" gridSize="10" guides="1" tooltips="1" connect="1" arrows="1" fold="1" page="1" pageScale="1" pageWidth="827" pageHeight="1169" math="0" shadow="0">
      <root>
        <mxCell id="0" />
        <mxCell id="1" parent="0" />
        <mxCell id="PE389e5Ru2BGLaINTEhU-2" value="&lt;b&gt;GitHub Environment&lt;/b&gt;&lt;div&gt;&lt;br&gt;&lt;/div&gt;&lt;div&gt;&lt;i&gt;credentials&lt;/i&gt;&lt;/div&gt;" style="rounded=1;whiteSpace=wrap;html=1;verticalAlign=top;" vertex="1" parent="1">
          <mxGeometry x="60" y="150" width="140" height="60" as="geometry" />
        </mxCell>
        <mxCell id="PE389e5Ru2BGLaINTEhU-12" style="edgeStyle=orthogonalEdgeStyle;rounded=0;orthogonalLoop=1;jettySize=auto;html=1;entryX=0.5;entryY=1;entryDx=0;entryDy=0;exitX=0;exitY=0.5;exitDx=0;exitDy=0;" edge="1" parent="1" source="PE389e5Ru2BGLaINTEhU-3" target="PE389e5Ru2BGLaINTEhU-2">
          <mxGeometry relative="1" as="geometry" />
        </mxCell>
        <mxCell id="PE389e5Ru2BGLaINTEhU-3" value="&lt;div&gt;&lt;br&gt;&lt;/div&gt;&lt;div&gt;&lt;br&gt;&lt;/div&gt;&lt;div&gt;&lt;i&gt;bootstrap-1&lt;/i&gt;&lt;/div&gt;" style="rounded=1;whiteSpace=wrap;html=1;verticalAlign=top;" vertex="1" parent="1">
          <mxGeometry x="160" y="220" width="140" height="60" as="geometry" />
        </mxCell>
        <mxCell id="PE389e5Ru2BGLaINTEhU-13" style="edgeStyle=orthogonalEdgeStyle;rounded=0;orthogonalLoop=1;jettySize=auto;html=1;exitX=0;exitY=0.5;exitDx=0;exitDy=0;entryX=0.5;entryY=1;entryDx=0;entryDy=0;" edge="1" parent="1" source="PE389e5Ru2BGLaINTEhU-4" target="PE389e5Ru2BGLaINTEhU-2">
          <mxGeometry relative="1" as="geometry" />
        </mxCell>
        <mxCell id="PE389e5Ru2BGLaINTEhU-4" value="&lt;div&gt;&lt;br&gt;&lt;/div&gt;&lt;div&gt;&lt;br&gt;&lt;/div&gt;&lt;div&gt;&lt;i&gt;bootstrap-2&lt;/i&gt;&lt;/div&gt;" style="rounded=1;whiteSpace=wrap;html=1;verticalAlign=top;" vertex="1" parent="1">
          <mxGeometry x="160" y="290" width="140" height="60" as="geometry" />
        </mxCell>
        <mxCell id="PE389e5Ru2BGLaINTEhU-14" style="edgeStyle=orthogonalEdgeStyle;rounded=0;orthogonalLoop=1;jettySize=auto;html=1;exitX=0;exitY=0.5;exitDx=0;exitDy=0;entryX=0.5;entryY=1;entryDx=0;entryDy=0;" edge="1" parent="1" source="PE389e5Ru2BGLaINTEhU-5" target="PE389e5Ru2BGLaINTEhU-2">
          <mxGeometry relative="1" as="geometry" />
        </mxCell>
        <mxCell id="PE389e5Ru2BGLaINTEhU-5" value="&lt;div&gt;&lt;br&gt;&lt;/div&gt;&lt;div&gt;&lt;br&gt;&lt;/div&gt;&lt;div&gt;&lt;i&gt;cleanup&lt;/i&gt;&lt;/div&gt;" style="rounded=1;whiteSpace=wrap;html=1;verticalAlign=top;" vertex="1" parent="1">
          <mxGeometry x="160" y="360" width="140" height="60" as="geometry" />
        </mxCell>
        <mxCell id="PE389e5Ru2BGLaINTEhU-15" style="edgeStyle=orthogonalEdgeStyle;rounded=0;orthogonalLoop=1;jettySize=auto;html=1;exitX=0;exitY=0.5;exitDx=0;exitDy=0;entryX=0.5;entryY=1;entryDx=0;entryDy=0;" edge="1" parent="1" source="PE389e5Ru2BGLaINTEhU-6" target="PE389e5Ru2BGLaINTEhU-2">
          <mxGeometry relative="1" as="geometry" />
        </mxCell>
        <mxCell id="PE389e5Ru2BGLaINTEhU-6" value="&lt;div&gt;&lt;br&gt;&lt;/div&gt;&lt;div&gt;&lt;br&gt;&lt;/div&gt;&lt;div&gt;&lt;i&gt;create-environments&lt;/i&gt;&lt;/div&gt;" style="rounded=1;whiteSpace=wrap;html=1;verticalAlign=top;" vertex="1" parent="1">
          <mxGeometry x="160" y="430" width="140" height="60" as="geometry" />
        </mxCell>
        <mxCell id="PE389e5Ru2BGLaINTEhU-7" value="GitHub Workflow" style="shape=image;verticalLabelPosition=middle;labelBackgroundColor=default;verticalAlign=middle;aspect=fixed;imageAspect=0;image=data:image/svg+xml,PHN2ZyB4bWxucz0iaHR0cDovL3d3dy53My5vcmcvMjAwMC9zdmciIHJvbGU9ImltZyIgdmlld0JveD0iMCAwIDI0IDI0IiBoZWlnaHQ9IjgwMHB4IiB3aWR0aD0iODAwcHgiIGZpbGw9IiMwMDAwMDAiPjx0aXRsZT5HaXRIdWIgQWN0aW9ucyBpY29uPC90aXRsZT48cGF0aCBkPSJNMTAuOTg0IDEzLjgzNmEuNS41IDAgMCAxLS4zNTMtLjE0NmwtLjc0NS0uNzQzYS41LjUgMCAxIDEgLjcwNi0uNzA4bC4zOTIuMzkxIDEuMTgxLTEuMThhLjUuNSAwIDAgMSAuNzA4LjcwN2wtMS41MzUgMS41MzNhLjUwNC41MDQgMCAwIDEtLjM1NC4xNDZ6bTkuMzUzLS4xNDdsMS41MzQtMS41MzJhLjUuNSAwIDAgMC0uNzA3LS43MDdsLTEuMTgxIDEuMTgtLjM5Mi0uMzkxYS41LjUgMCAxIDAtLjcwNi43MDhsLjc0Ni43NDNhLjQ5Ny40OTcgMCAwIDAgLjcwNi0uMDAxek00LjUyNyA3LjQ1MmwyLjU1Ny0xLjU4NUExIDEgMCAwIDAgNy4wOSA0LjE3TDQuNTMzIDIuNTZBMSAxIDAgMCAwIDMgMy40MDZ2My4xOTZhMS4wMDEgMS4wMDEgMCAwIDAgMS41MjcuODV6bTIuMDMtMi40MzZMNCA2LjYwMlYzLjQwNmwyLjU1NyAxLjYxek0yNCAxMi41YzAgMS45My0xLjU3IDMuNS0zLjUgMy41YTMuNTAzIDMuNTAzIDAgMCAxLTMuNDYtM2gtMi4wOGEzLjUwMyAzLjUwMyAwIDAgMS0zLjQ2IDMgMy41MDIgMy41MDIgMCAwIDEtMy40Ni0zaC0uNTU4Yy0uOTcyIDAtMS44NS0uMzk5LTIuNDgyLTEuMDQyVjE3YzAgMS42NTQgMS4zNDYgMyAzIDNoLjA0Yy4yNDQtMS42OTMgMS43LTMgMy40Ni0zIDEuOTMgMCAzLjUgMS41NyAzLjUgMy41UzEzLjQzIDI0IDExLjUgMjRhMy41MDIgMy41MDIgMCAwIDEtMy40Ni0zSDhjLTIuMjA2IDAtNC0xLjc5NC00LTRWOS44OTlBNS4wMDggNS4wMDggMCAwIDEgMCA1YzAtMi43NTcgMi4yNDMtNSA1LTVzNSAyLjI0MyA1IDVhNS4wMDUgNS4wMDUgMCAwIDEtNC45NTIgNC45OThBMi40ODIgMi40ODIgMCAwIDAgNy40ODIgMTJoLjU1OGMuMjQ0LTEuNjkzIDEuNy0zIDMuNDYtM2EzLjUwMiAzLjUwMiAwIDAgMSAzLjQ2IDNoMi4wOGEzLjUwMyAzLjUwMyAwIDAgMSAzLjQ2LTNjMS45MyAwIDMuNSAxLjU3IDMuNSAzLjV6bS0xNSA4YzAgMS4zNzggMS4xMjIgMi41IDIuNSAyLjVzMi41LTEuMTIyIDIuNS0yLjUtMS4xMjItMi41LTIuNS0yLjVTOSAxOS4xMjIgOSAyMC41ek01IDljMi4yMDYgMCA0LTEuNzk0IDQtNFM3LjIwNiAxIDUgMSAxIDIuNzk0IDEgNXMxLjc5NCA0IDQgNHptOSAzLjVjMC0xLjM3OC0xLjEyMi0yLjUtMi41LTIuNVM5IDExLjEyMiA5IDEyLjVzMS4xMjIgMi41IDIuNSAyLjUgMi41LTEuMTIyIDIuNS0yLjV6bTkgMGMwLTEuMzc4LTEuMTIyLTIuNS0yLjUtMi41UzE4IDExLjEyMiAxOCAxMi41czEuMTIyIDIuNSAyLjUgMi41IDIuNS0xLjEyMiAyLjUtMi41em0tMTMgOGEuNS41IDAgMSAwIDEgMCAuNS41IDAgMCAwLTEgMHptMiAwYS41LjUgMCAxIDAgMSAwIC41LjUgMCAwIDAtMSAwem0xMiAwYzAgMS45My0xLjU3IDMuNS0zLjUgMy41YTMuNTAzIDMuNTAzIDAgMCAxLTMuNDYtMy4wMDJjLS4wMDcuMDAxLS4wMTMuMDA1LS4wMjEuMDA1bC0uNTA2LjAxN2gtLjAxN2EuNS41IDAgMCAxLS4wMTYtLjk5OWwuNTA2LS4wMTdjLjAxOC0uMDAyLjAzNS4wMDYuMDUyLjAwN0EzLjUwMyAzLjUwMyAwIDAgMSAyMC41IDE3YzEuOTMgMCAzLjUgMS41NyAzLjUgMy41em0tMSAwYzAtMS4zNzgtMS4xMjItMi41LTIuNS0yLjVTMTggMTkuMTIyIDE4IDIwLjVzMS4xMjIgMi41IDIuNSAyLjUgMi41LTEuMTIyIDIuNS0yLjV6Ii8+PC9zdmc+;labelPosition=right;align=left;fontStyle=1" vertex="1" parent="1">
          <mxGeometry x="165" y="224" width="20" height="20" as="geometry" />
        </mxCell>
        <mxCell id="PE389e5Ru2BGLaINTEhU-8" value="GitHub Workflow" style="shape=image;verticalLabelPosition=middle;labelBackgroundColor=default;verticalAlign=middle;aspect=fixed;imageAspect=0;image=data:image/svg+xml,PHN2ZyB4bWxucz0iaHR0cDovL3d3dy53My5vcmcvMjAwMC9zdmciIHJvbGU9ImltZyIgdmlld0JveD0iMCAwIDI0IDI0IiBoZWlnaHQ9IjgwMHB4IiB3aWR0aD0iODAwcHgiIGZpbGw9IiMwMDAwMDAiPjx0aXRsZT5HaXRIdWIgQWN0aW9ucyBpY29uPC90aXRsZT48cGF0aCBkPSJNMTAuOTg0IDEzLjgzNmEuNS41IDAgMCAxLS4zNTMtLjE0NmwtLjc0NS0uNzQzYS41LjUgMCAxIDEgLjcwNi0uNzA4bC4zOTIuMzkxIDEuMTgxLTEuMThhLjUuNSAwIDAgMSAuNzA4LjcwN2wtMS41MzUgMS41MzNhLjUwNC41MDQgMCAwIDEtLjM1NC4xNDZ6bTkuMzUzLS4xNDdsMS41MzQtMS41MzJhLjUuNSAwIDAgMC0uNzA3LS43MDdsLTEuMTgxIDEuMTgtLjM5Mi0uMzkxYS41LjUgMCAxIDAtLjcwNi43MDhsLjc0Ni43NDNhLjQ5Ny40OTcgMCAwIDAgLjcwNi0uMDAxek00LjUyNyA3LjQ1MmwyLjU1Ny0xLjU4NUExIDEgMCAwIDAgNy4wOSA0LjE3TDQuNTMzIDIuNTZBMSAxIDAgMCAwIDMgMy40MDZ2My4xOTZhMS4wMDEgMS4wMDEgMCAwIDAgMS41MjcuODV6bTIuMDMtMi40MzZMNCA2LjYwMlYzLjQwNmwyLjU1NyAxLjYxek0yNCAxMi41YzAgMS45My0xLjU3IDMuNS0zLjUgMy41YTMuNTAzIDMuNTAzIDAgMCAxLTMuNDYtM2gtMi4wOGEzLjUwMyAzLjUwMyAwIDAgMS0zLjQ2IDMgMy41MDIgMy41MDIgMCAwIDEtMy40Ni0zaC0uNTU4Yy0uOTcyIDAtMS44NS0uMzk5LTIuNDgyLTEuMDQyVjE3YzAgMS42NTQgMS4zNDYgMyAzIDNoLjA0Yy4yNDQtMS42OTMgMS43LTMgMy40Ni0zIDEuOTMgMCAzLjUgMS41NyAzLjUgMy41UzEzLjQzIDI0IDExLjUgMjRhMy41MDIgMy41MDIgMCAwIDEtMy40Ni0zSDhjLTIuMjA2IDAtNC0xLjc5NC00LTRWOS44OTlBNS4wMDggNS4wMDggMCAwIDEgMCA1YzAtMi43NTcgMi4yNDMtNSA1LTVzNSAyLjI0MyA1IDVhNS4wMDUgNS4wMDUgMCAwIDEtNC45NTIgNC45OThBMi40ODIgMi40ODIgMCAwIDAgNy40ODIgMTJoLjU1OGMuMjQ0LTEuNjkzIDEuNy0zIDMuNDYtM2EzLjUwMiAzLjUwMiAwIDAgMSAzLjQ2IDNoMi4wOGEzLjUwMyAzLjUwMyAwIDAgMSAzLjQ2LTNjMS45MyAwIDMuNSAxLjU3IDMuNSAzLjV6bS0xNSA4YzAgMS4zNzggMS4xMjIgMi41IDIuNSAyLjVzMi41LTEuMTIyIDIuNS0yLjUtMS4xMjItMi41LTIuNS0yLjVTOSAxOS4xMjIgOSAyMC41ek01IDljMi4yMDYgMCA0LTEuNzk0IDQtNFM3LjIwNiAxIDUgMSAxIDIuNzk0IDEgNXMxLjc5NCA0IDQgNHptOSAzLjVjMC0xLjM3OC0xLjEyMi0yLjUtMi41LTIuNVM5IDExLjEyMiA5IDEyLjVzMS4xMjIgMi41IDIuNSAyLjUgMi41LTEuMTIyIDIuNS0yLjV6bTkgMGMwLTEuMzc4LTEuMTIyLTIuNS0yLjUtMi41UzE4IDExLjEyMiAxOCAxMi41czEuMTIyIDIuNSAyLjUgMi41IDIuNS0xLjEyMiAyLjUtMi41em0tMTMgOGEuNS41IDAgMSAwIDEgMCAuNS41IDAgMCAwLTEgMHptMiAwYS41LjUgMCAxIDAgMSAwIC41LjUgMCAwIDAtMSAwem0xMiAwYzAgMS45My0xLjU3IDMuNS0zLjUgMy41YTMuNTAzIDMuNTAzIDAgMCAxLTMuNDYtMy4wMDJjLS4wMDcuMDAxLS4wMTMuMDA1LS4wMjEuMDA1bC0uNTA2LjAxN2gtLjAxN2EuNS41IDAgMCAxLS4wMTYtLjk5OWwuNTA2LS4wMTdjLjAxOC0uMDAyLjAzNS4wMDYuMDUyLjAwN0EzLjUwMyAzLjUwMyAwIDAgMSAyMC41IDE3YzEuOTMgMCAzLjUgMS41NyAzLjUgMy41em0tMSAwYzAtMS4zNzgtMS4xMjItMi41LTIuNS0yLjVTMTggMTkuMTIyIDE4IDIwLjVzMS4xMjIgMi41IDIuNSAyLjUgMi41LTEuMTIyIDIuNS0yLjV6Ii8+PC9zdmc+;labelPosition=right;align=left;fontStyle=1" vertex="1" parent="1">
          <mxGeometry x="165" y="293" width="20" height="20" as="geometry" />
        </mxCell>
        <mxCell id="PE389e5Ru2BGLaINTEhU-9" value="GitHub Workflow" style="shape=image;verticalLabelPosition=middle;labelBackgroundColor=default;verticalAlign=middle;aspect=fixed;imageAspect=0;image=data:image/svg+xml,PHN2ZyB4bWxucz0iaHR0cDovL3d3dy53My5vcmcvMjAwMC9zdmciIHJvbGU9ImltZyIgdmlld0JveD0iMCAwIDI0IDI0IiBoZWlnaHQ9IjgwMHB4IiB3aWR0aD0iODAwcHgiIGZpbGw9IiMwMDAwMDAiPjx0aXRsZT5HaXRIdWIgQWN0aW9ucyBpY29uPC90aXRsZT48cGF0aCBkPSJNMTAuOTg0IDEzLjgzNmEuNS41IDAgMCAxLS4zNTMtLjE0NmwtLjc0NS0uNzQzYS41LjUgMCAxIDEgLjcwNi0uNzA4bC4zOTIuMzkxIDEuMTgxLTEuMThhLjUuNSAwIDAgMSAuNzA4LjcwN2wtMS41MzUgMS41MzNhLjUwNC41MDQgMCAwIDEtLjM1NC4xNDZ6bTkuMzUzLS4xNDdsMS41MzQtMS41MzJhLjUuNSAwIDAgMC0uNzA3LS43MDdsLTEuMTgxIDEuMTgtLjM5Mi0uMzkxYS41LjUgMCAxIDAtLjcwNi43MDhsLjc0Ni43NDNhLjQ5Ny40OTcgMCAwIDAgLjcwNi0uMDAxek00LjUyNyA3LjQ1MmwyLjU1Ny0xLjU4NUExIDEgMCAwIDAgNy4wOSA0LjE3TDQuNTMzIDIuNTZBMSAxIDAgMCAwIDMgMy40MDZ2My4xOTZhMS4wMDEgMS4wMDEgMCAwIDAgMS41MjcuODV6bTIuMDMtMi40MzZMNCA2LjYwMlYzLjQwNmwyLjU1NyAxLjYxek0yNCAxMi41YzAgMS45My0xLjU3IDMuNS0zLjUgMy41YTMuNTAzIDMuNTAzIDAgMCAxLTMuNDYtM2gtMi4wOGEzLjUwMyAzLjUwMyAwIDAgMS0zLjQ2IDMgMy41MDIgMy41MDIgMCAwIDEtMy40Ni0zaC0uNTU4Yy0uOTcyIDAtMS44NS0uMzk5LTIuNDgyLTEuMDQyVjE3YzAgMS42NTQgMS4zNDYgMyAzIDNoLjA0Yy4yNDQtMS42OTMgMS43LTMgMy40Ni0zIDEuOTMgMCAzLjUgMS41NyAzLjUgMy41UzEzLjQzIDI0IDExLjUgMjRhMy41MDIgMy41MDIgMCAwIDEtMy40Ni0zSDhjLTIuMjA2IDAtNC0xLjc5NC00LTRWOS44OTlBNS4wMDggNS4wMDggMCAwIDEgMCA1YzAtMi43NTcgMi4yNDMtNSA1LTVzNSAyLjI0MyA1IDVhNS4wMDUgNS4wMDUgMCAwIDEtNC45NTIgNC45OThBMi40ODIgMi40ODIgMCAwIDAgNy40ODIgMTJoLjU1OGMuMjQ0LTEuNjkzIDEuNy0zIDMuNDYtM2EzLjUwMiAzLjUwMiAwIDAgMSAzLjQ2IDNoMi4wOGEzLjUwMyAzLjUwMyAwIDAgMSAzLjQ2LTNjMS45MyAwIDMuNSAxLjU3IDMuNSAzLjV6bS0xNSA4YzAgMS4zNzggMS4xMjIgMi41IDIuNSAyLjVzMi41LTEuMTIyIDIuNS0yLjUtMS4xMjItMi41LTIuNS0yLjVTOSAxOS4xMjIgOSAyMC41ek01IDljMi4yMDYgMCA0LTEuNzk0IDQtNFM3LjIwNiAxIDUgMSAxIDIuNzk0IDEgNXMxLjc5NCA0IDQgNHptOSAzLjVjMC0xLjM3OC0xLjEyMi0yLjUtMi41LTIuNVM5IDExLjEyMiA5IDEyLjVzMS4xMjIgMi41IDIuNSAyLjUgMi41LTEuMTIyIDIuNS0yLjV6bTkgMGMwLTEuMzc4LTEuMTIyLTIuNS0yLjUtMi41UzE4IDExLjEyMiAxOCAxMi41czEuMTIyIDIuNSAyLjUgMi41IDIuNS0xLjEyMiAyLjUtMi41em0tMTMgOGEuNS41IDAgMSAwIDEgMCAuNS41IDAgMCAwLTEgMHptMiAwYS41LjUgMCAxIDAgMSAwIC41LjUgMCAwIDAtMSAwem0xMiAwYzAgMS45My0xLjU3IDMuNS0zLjUgMy41YTMuNTAzIDMuNTAzIDAgMCAxLTMuNDYtMy4wMDJjLS4wMDcuMDAxLS4wMTMuMDA1LS4wMjEuMDA1bC0uNTA2LjAxN2gtLjAxN2EuNS41IDAgMCAxLS4wMTYtLjk5OWwuNTA2LS4wMTdjLjAxOC0uMDAyLjAzNS4wMDYuMDUyLjAwN0EzLjUwMyAzLjUwMyAwIDAgMSAyMC41IDE3YzEuOTMgMCAzLjUgMS41NyAzLjUgMy41em0tMSAwYzAtMS4zNzgtMS4xMjItMi41LTIuNS0yLjVTMTggMTkuMTIyIDE4IDIwLjVzMS4xMjIgMi41IDIuNSAyLjUgMi41LTEuMTIyIDIuNS0yLjV6Ii8+PC9zdmc+;labelPosition=right;align=left;fontStyle=1" vertex="1" parent="1">
          <mxGeometry x="165" y="363" width="20" height="20" as="geometry" />
        </mxCell>
        <mxCell id="PE389e5Ru2BGLaINTEhU-10" value="GitHub Workflow" style="shape=image;verticalLabelPosition=middle;labelBackgroundColor=default;verticalAlign=middle;aspect=fixed;imageAspect=0;image=data:image/svg+xml,PHN2ZyB4bWxucz0iaHR0cDovL3d3dy53My5vcmcvMjAwMC9zdmciIHJvbGU9ImltZyIgdmlld0JveD0iMCAwIDI0IDI0IiBoZWlnaHQ9IjgwMHB4IiB3aWR0aD0iODAwcHgiIGZpbGw9IiMwMDAwMDAiPjx0aXRsZT5HaXRIdWIgQWN0aW9ucyBpY29uPC90aXRsZT48cGF0aCBkPSJNMTAuOTg0IDEzLjgzNmEuNS41IDAgMCAxLS4zNTMtLjE0NmwtLjc0NS0uNzQzYS41LjUgMCAxIDEgLjcwNi0uNzA4bC4zOTIuMzkxIDEuMTgxLTEuMThhLjUuNSAwIDAgMSAuNzA4LjcwN2wtMS41MzUgMS41MzNhLjUwNC41MDQgMCAwIDEtLjM1NC4xNDZ6bTkuMzUzLS4xNDdsMS41MzQtMS41MzJhLjUuNSAwIDAgMC0uNzA3LS43MDdsLTEuMTgxIDEuMTgtLjM5Mi0uMzkxYS41LjUgMCAxIDAtLjcwNi43MDhsLjc0Ni43NDNhLjQ5Ny40OTcgMCAwIDAgLjcwNi0uMDAxek00LjUyNyA3LjQ1MmwyLjU1Ny0xLjU4NUExIDEgMCAwIDAgNy4wOSA0LjE3TDQuNTMzIDIuNTZBMSAxIDAgMCAwIDMgMy40MDZ2My4xOTZhMS4wMDEgMS4wMDEgMCAwIDAgMS41MjcuODV6bTIuMDMtMi40MzZMNCA2LjYwMlYzLjQwNmwyLjU1NyAxLjYxek0yNCAxMi41YzAgMS45My0xLjU3IDMuNS0zLjUgMy41YTMuNTAzIDMuNTAzIDAgMCAxLTMuNDYtM2gtMi4wOGEzLjUwMyAzLjUwMyAwIDAgMS0zLjQ2IDMgMy41MDIgMy41MDIgMCAwIDEtMy40Ni0zaC0uNTU4Yy0uOTcyIDAtMS44NS0uMzk5LTIuNDgyLTEuMDQyVjE3YzAgMS42NTQgMS4zNDYgMyAzIDNoLjA0Yy4yNDQtMS42OTMgMS43LTMgMy40Ni0zIDEuOTMgMCAzLjUgMS41NyAzLjUgMy41UzEzLjQzIDI0IDExLjUgMjRhMy41MDIgMy41MDIgMCAwIDEtMy40Ni0zSDhjLTIuMjA2IDAtNC0xLjc5NC00LTRWOS44OTlBNS4wMDggNS4wMDggMCAwIDEgMCA1YzAtMi43NTcgMi4yNDMtNSA1LTVzNSAyLjI0MyA1IDVhNS4wMDUgNS4wMDUgMCAwIDEtNC45NTIgNC45OThBMi40ODIgMi40ODIgMCAwIDAgNy40ODIgMTJoLjU1OGMuMjQ0LTEuNjkzIDEuNy0zIDMuNDYtM2EzLjUwMiAzLjUwMiAwIDAgMSAzLjQ2IDNoMi4wOGEzLjUwMyAzLjUwMyAwIDAgMSAzLjQ2LTNjMS45MyAwIDMuNSAxLjU3IDMuNSAzLjV6bS0xNSA4YzAgMS4zNzggMS4xMjIgMi41IDIuNSAyLjVzMi41LTEuMTIyIDIuNS0yLjUtMS4xMjItMi41LTIuNS0yLjVTOSAxOS4xMjIgOSAyMC41ek01IDljMi4yMDYgMCA0LTEuNzk0IDQtNFM3LjIwNiAxIDUgMSAxIDIuNzk0IDEgNXMxLjc5NCA0IDQgNHptOSAzLjVjMC0xLjM3OC0xLjEyMi0yLjUtMi41LTIuNVM5IDExLjEyMiA5IDEyLjVzMS4xMjIgMi41IDIuNSAyLjUgMi41LTEuMTIyIDIuNS0yLjV6bTkgMGMwLTEuMzc4LTEuMTIyLTIuNS0yLjUtMi41UzE4IDExLjEyMiAxOCAxMi41czEuMTIyIDIuNSAyLjUgMi41IDIuNS0xLjEyMiAyLjUtMi41em0tMTMgOGEuNS41IDAgMSAwIDEgMCAuNS41IDAgMCAwLTEgMHptMiAwYS41LjUgMCAxIDAgMSAwIC41LjUgMCAwIDAtMSAwem0xMiAwYzAgMS45My0xLjU3IDMuNS0zLjUgMy41YTMuNTAzIDMuNTAzIDAgMCAxLTMuNDYtMy4wMDJjLS4wMDcuMDAxLS4wMTMuMDA1LS4wMjEuMDA1bC0uNTA2LjAxN2gtLjAxN2EuNS41IDAgMCAxLS4wMTYtLjk5OWwuNTA2LS4wMTdjLjAxOC0uMDAyLjAzNS4wMDYuMDUyLjAwN0EzLjUwMyAzLjUwMyAwIDAgMSAyMC41IDE3YzEuOTMgMCAzLjUgMS41NyAzLjUgMy41em0tMSAwYzAtMS4zNzgtMS4xMjItMi41LTIuNS0yLjVTMTggMTkuMTIyIDE4IDIwLjVzMS4xMjIgMi41IDIuNSAyLjUgMi41LTEuMTIyIDIuNS0yLjV6Ii8+PC9zdmc+;labelPosition=right;align=left;fontStyle=1" vertex="1" parent="1">
          <mxGeometry x="165" y="433" width="20" height="20" as="geometry" />
        </mxCell>
      </root>
    </mxGraphModel>
  </diagram>
</mxfile>
